<svg width="20" height="18" viewBox="0 0 20 18" fill="none" xmlns="http://www.w3.org/2000/svg">
<path d="M19.0867 6.46146C19.0293 6.29487 18.9235 6.1485 18.7826 6.0404C18.6416 5.93231 18.4716 5.86722 18.2935 5.85319L13.084 5.44558L10.8297 0.531754C10.7579 0.37349 10.6411 0.239068 10.4935 0.144711C10.3458 0.050354 10.1736 9.52702e-05 9.99755 1.35311e-07C9.82153 -9.49996e-05 9.64923 0.0499776 9.50146 0.144175C9.35369 0.238372 9.23677 0.372668 9.1648 0.530855L6.91049 5.44558L1.701 5.85319C1.52597 5.86684 1.35864 5.92986 1.21902 6.03471C1.07941 6.13955 0.973433 6.28178 0.913763 6.44439C0.854093 6.60699 0.84326 6.78308 0.882559 6.95158C0.921858 7.12009 1.00963 7.27388 1.13536 7.39455L4.98514 11.09L3.6236 16.8956C3.58226 17.0713 3.59551 17.2552 3.66163 17.4234C3.72776 17.5917 3.8437 17.7364 3.99442 17.839C4.14514 17.9415 4.32367 17.997 4.50685 17.9984C4.69003 17.9998 4.86941 17.9469 5.02169 17.8467L9.99726 14.5804L14.9728 17.8467C15.1285 17.9484 15.312 18.0008 15.4988 17.9968C15.6856 17.9927 15.8667 17.9325 16.0176 17.8241C16.1686 17.7157 16.2823 17.5644 16.3433 17.3905C16.4043 17.2166 16.4098 17.0285 16.359 16.8515L14.6877 11.0927L18.8327 7.41975C19.104 7.1786 19.2037 6.80248 19.0867 6.46146Z" fill="#F3CD03"/>
</svg>
