<svg width="20" height="18" viewBox="0 0 20 18" fill="none" xmlns="http://www.w3.org/2000/svg">
<path d="M19.1587 6.46146C19.1013 6.29487 18.9956 6.1485 18.8546 6.0404C18.7136 5.93231 18.5436 5.86722 18.3655 5.85319L13.156 5.44558L10.9017 0.531754C10.8299 0.37349 10.7132 0.239068 10.5655 0.144711C10.4178 0.050354 10.2456 9.52702e-05 10.0696 1.35311e-07C9.89355 -9.49996e-05 9.72125 0.0499776 9.57348 0.144175C9.42572 0.238372 9.30879 0.372668 9.23682 0.530855L6.98251 5.44558L1.77302 5.85319C1.59799 5.86684 1.43066 5.92986 1.29105 6.03471C1.15143 6.13955 1.04545 6.28178 0.985784 6.44439C0.926114 6.60699 0.915281 6.78308 0.95458 6.95158C0.99388 7.12009 1.08165 7.27388 1.20738 7.39455L5.05716 11.09L3.69562 16.8956C3.65428 17.0713 3.66753 17.2552 3.73365 17.4234C3.79978 17.5917 3.91572 17.7364 4.06644 17.839C4.21716 17.9415 4.39569 17.997 4.57887 17.9984C4.76206 17.9998 4.94143 17.9469 5.09372 17.8467L10.0693 14.5804L15.0448 17.8467C15.2005 17.9484 15.3841 18.0008 15.5708 17.9968C15.7576 17.9927 15.9387 17.9325 16.0897 17.8241C16.2406 17.7157 16.3543 17.5644 16.4153 17.3905C16.4763 17.2166 16.4818 17.0285 16.4311 16.8515L14.7597 11.0927L18.9047 7.41975C19.1761 7.1786 19.2757 6.80248 19.1587 6.46146Z" fill="#F3CD03"/>
</svg>
